<svg id="Icons" height="512" viewBox="0 0 74 74" width="512" xmlns="http://www.w3.org/2000/svg"><path d="m43.361 55.008h-19.021v-2h19.021a.64.64 0 0 0 .639-.639v-36.719a.645.645 0 0 0 -.639-.65h-38.722a.645.645 0 0 0 -.639.65v36.719a.64.64 0 0 0 .639.639h7.591v2h-7.591a2.642 2.642 0 0 1 -2.639-2.639v-36.719a2.648 2.648 0 0 1 2.639-2.65h38.722a2.648 2.648 0 0 1 2.639 2.65v36.719a2.642 2.642 0 0 1 -2.639 2.639z"/><path d="m43.361 53.008h8.553v2h-8.553z"/><path d="m67 55.008h-2.966v-2h2.966a3 3 0 0 0 3-3v-7.889a3 3 0 0 0 -.436-1.557l-7.35-12.1a3.016 3.016 0 0 0 -2.564-1.443h-14.65v-2h14.65a5.028 5.028 0 0 1 4.273 2.4l7.35 12.1a5 5 0 0 1 .727 2.6v7.889a5.006 5.006 0 0 1 -5 5z"/><path d="m57.974 61.064a7.056 7.056 0 1 1 7.056-7.056 7.063 7.063 0 0 1 -7.056 7.056zm0-12.111a5.056 5.056 0 1 0 5.056 5.056 5.061 5.061 0 0 0 -5.056-5.056z"/><path d="m18.281 61.064a7.056 7.056 0 1 1 7.056-7.056 7.064 7.064 0 0 1 -7.056 7.056zm0-12.111a5.056 5.056 0 1 0 5.056 5.056 5.062 5.062 0 0 0 -5.056-5.056z"/><path d="m3 41h42v2h-42z"/><path d="m71 42h-20.949v-15.985h2v13.985h18.949z"/><path d="m51.051 44h3.949v2h-3.949z"/><path d="m14.4 38.667a1 1 0 0 1 -.98-1.2l3.78-18.667a1.024 1.024 0 0 1 1.008-.8c12.528 0 16.316 12.651 16.353 12.779a1 1 0 0 1 -.637 1.221l-19.2 6.61a1 1 0 0 1 -.324.057zm4.59-18.647-3.261 16.132 16.6-5.715c-1.013-2.619-4.622-9.997-13.337-10.418z"/><path d="m29.55 32.539c-2.442-5.5-6.2-8.411-12.173-9.451l.343-1.971c6.614 1.151 10.954 4.522 13.658 10.61z"/><path d="m19.85 26.095h2v1.675h-2z" transform="matrix(.707 -.707 .707 .707 -12.938 22.632)"/><path d="m20.687 30.093h2v2.319h-2z" transform="matrix(.397 -.918 .918 .397 -15.605 38.756)"/><path d="m17.465 32.49h2v1.702h-2z" transform="matrix(.264 -.965 .965 .264 -18.566 42.354)"/><path d="m24.207 28.184h2v1.902h-2z" transform="matrix(.156 -.988 .988 .156 -7.496 49.501)"/></svg>