<?xml version="1.0" encoding="iso-8859-1"?>
<!-- Generator: Adobe Illustrator 19.0.0, SVG Export Plug-In . SVG Version: 6.00 Build 0)  -->
<svg version="1.1" id="Capa_1" xmlns="http://www.w3.org/2000/svg" xmlns:xlink="http://www.w3.org/1999/xlink" x="0px" y="0px"
	 viewBox="0 0 512 512" style="enable-background:new 0 0 512 512;" xml:space="preserve">
<g>
	<g>
		<g>
			<circle cx="119.28" cy="218.155" r="6.915"/>
			<circle cx="164.532" cy="218.156" r="6.915"/>
			<path d="M206.699,359.362c7.836,4.088,14.507,8.451,20.218,13.224L199.303,400.2c-2.929,2.93-2.929,7.678,0,10.607
				c1.464,1.464,3.384,2.196,5.303,2.196s3.839-0.732,5.303-2.196l27.614-27.614c4.773,5.711,9.135,12.382,13.225,20.219
				c1.338,2.564,3.951,4.032,6.655,4.032c1.169,0,2.355-0.274,3.464-0.853c3.672-1.916,5.096-6.447,3.18-10.119
				c-6.208-11.897-13.07-21.524-20.978-29.433c-7.909-7.908-17.536-14.77-29.432-20.977c-3.673-1.918-8.203-0.492-10.119,3.18
				C201.603,352.916,203.026,357.446,206.699,359.362z"/>
			<circle cx="150.702" cy="263.86" r="6.915"/>
			<circle cx="321.616" cy="316.79" r="6.915"/>
			<path d="M320.219,58.525V49.11c0-4.143-3.357-7.5-7.5-7.5s-7.5,3.357-7.5,7.5v9.415c0,4.143,3.357,7.5,7.5,7.5
				C316.861,66.025,320.219,62.668,320.219,58.525z"/>
			<path d="M228.41,212.258c-3.739,11.926-0.811,24.712,7.643,33.369c8.2,8.397,19.895,11.758,31.288,8.982
				c8.466-2.061,15.524-7.201,19.995-14.307l8.48,8.482c5.097,5.096,11.791,7.644,18.485,7.644s13.389-2.549,18.485-7.644l6.04-6.04
				c10.192-10.193,10.192-26.777-0.001-36.971l-8.483-8.482c7.049-4.439,12.17-11.426,14.262-19.802
				c2.821-11.297-0.41-22.957-8.644-31.191c-8.603-8.602-21.179-11.744-32.813-8.193l2.187,7.174l-2.188-7.174
				C267.498,148.976,239.559,176.696,228.41,212.258z M307.524,152.453c6.324-1.928,13.157-0.223,17.831,4.453
				c4.475,4.474,6.231,10.811,4.698,16.95c-1.533,6.139-6.063,10.906-12.118,12.753c-3.176,0.97-5.553,3.473-6.358,6.694
				c-0.805,3.223,0.116,6.549,2.467,8.901l14.177,14.177c4.345,4.344,4.345,11.412,0,15.756l-6.04,6.04
				c-4.344,4.344-11.412,4.343-15.756,0.001l-14.18-14.181c-1.79-1.789-4.147-2.749-6.594-2.749c-0.765,0-1.537,0.094-2.305,0.285
				c-3.222,0.805-5.725,3.181-6.695,6.36c-1.858,6.095-6.665,10.634-12.857,12.141c-6.191,1.507-12.548-0.32-17.009-4.889
				c-4.59-4.701-6.147-11.752-4.062-18.401C252.39,185.912,276.614,161.878,307.524,152.453z"/>
			<circle cx="332.069" cy="345.798" r="6.915"/>
			<path d="M256,73.256c7.898,0,15.409-3.421,20.607-9.385c2.722-3.123,2.396-7.86-0.727-10.582
				c-3.124-2.722-7.86-2.396-10.582,0.726c-2.349,2.694-5.737,4.24-9.299,4.24c-3.562,0-6.951-1.546-9.3-4.24
				c-2.721-3.124-7.459-3.447-10.581-0.726c-3.123,2.722-3.448,7.46-0.726,10.582C240.591,69.835,248.102,73.256,256,73.256z"/>
			<path d="M206.782,58.525V49.11c0-4.143-3.358-7.5-7.5-7.5c-4.142,0-7.5,3.357-7.5,7.5v9.415c0,4.143,3.358,7.5,7.5,7.5
				C203.424,66.025,206.782,62.668,206.782,58.525z"/>
			<circle cx="357.072" cy="297.857" r="6.915"/>
			<path d="M257.5,224.805c1.108,0.578,2.295,0.852,3.464,0.852c2.704,0,5.317-1.469,6.655-4.032
				c4.089-7.837,8.45-14.507,13.224-20.218l27.614,27.614c1.465,1.464,3.385,2.196,5.304,2.196c1.919,0,3.839-0.732,5.304-2.196
				c2.929-2.93,2.929-7.678,0-10.607L291.45,190.8c5.71-4.773,12.381-9.135,20.218-13.224c3.672-1.916,5.096-6.446,3.18-10.119
				c-1.916-3.673-6.447-5.098-10.119-3.18c-11.889,6.204-21.511,13.061-29.414,20.961c-0.005,0.006-0.012,0.01-0.017,0.016
				c-0.006,0.006-0.011,0.012-0.016,0.018c-7.901,7.904-14.757,17.525-20.96,29.413C252.404,218.358,253.828,222.889,257.5,224.805z
				"/>
			<path d="M506.095,69.725c-2.898-8.443-8.946-15.142-17.027-18.861C415.724,17.113,337.309,0,256,0
				c-48.366,0-96.386,6.2-142.727,18.429c-4.005,1.057-6.395,5.16-5.338,9.166c1.057,4.005,5.162,6.393,9.165,5.338
				C162.193,21.033,208.925,15,256,15c79.128,0,155.434,16.65,226.796,49.49c4.321,1.988,7.558,5.577,9.112,10.106
				c1.577,4.593,1.216,9.496-1.018,13.807l-23.122,44.645c-4.281,8.267-14.328,11.708-22.871,7.835
				c-59.503-26.974-123.058-40.65-188.897-40.65c-65.828,0-129.38,13.681-188.892,40.661c-8.544,3.874-18.589,0.432-22.872-7.836
				L21.108,88.402c-2.232-4.311-2.594-9.214-1.017-13.807c1.555-4.528,4.791-8.117,9.112-10.106
				c13.598-6.258,27.623-12.016,41.683-17.113c3.894-1.412,5.906-5.713,4.494-9.607c-1.412-3.894-5.712-5.906-9.607-4.494
				c-14.451,5.239-28.865,11.157-42.841,17.589c-8.08,3.719-14.128,10.417-17.027,18.86c-2.879,8.384-2.192,17.707,1.884,25.577
				l23.128,44.654c2.81,5.426,6.957,9.726,11.835,12.714l30.824,59.514c0.005,0.01,0.011,0.021,0.016,0.032l48.795,94.211
				c0.008,0.014,0.015,0.029,0.022,0.043l64.399,124.341c0.011,0.021,0.022,0.043,0.033,0.064l29.534,57.024
				C224.075,502.765,239.258,512,256,512c0,0,0,0,0.001,0c16.74,0,31.925-9.236,39.625-24.102l5.427-10.479
				c1.904-3.679,0.467-8.204-3.211-10.109c-3.678-1.902-8.204-0.468-10.109,3.211L282.305,481c-5.188,10.019-15.022,16-26.305,16
				c-11.282,0-21.116-5.981-26.305-16l-22.27-42.998c5.564-0.719,10.911-3.22,15.122-7.431l8.483-8.483
				c4.438,7.048,11.426,12.17,19.802,14.261c11.298,2.823,22.957-0.411,31.19-8.643c8.603-8.604,11.743-21.177,8.194-32.814
				c-10.871-35.649-38.592-63.589-74.153-74.737c-11.927-3.74-24.713-0.81-33.369,7.644c-8.398,8.2-11.756,19.896-8.983,31.287
				c2.061,8.466,7.201,15.524,14.307,19.995l-7.32,7.321l-39.255-75.793c16.815-1.274,32.667-8.449,44.83-20.611
				c13.443-13.443,20.846-31.316,20.846-50.327c0-19.012-7.403-36.884-20.846-50.327c-13.443-13.442-31.316-20.846-50.327-20.846
				s-36.884,7.403-50.327,20.846c-1.561,1.561-3.04,3.199-4.447,4.897l-19.084-36.846c3.776-0.267,7.569-1.188,11.211-2.839
				c57.553-26.093,119.021-39.323,182.698-39.323c63.689,0,125.16,13.227,182.704,39.313c3.642,1.651,7.434,2.573,11.209,2.84
				l-56.977,110.01c-10.387-5.669-21.979-8.637-33.972-8.637c-39.245,0-71.173,31.928-71.173,71.173
				c0,27.289,15.645,51.968,39.695,63.832l-19.667,37.972c-1.904,3.678-0.467,8.204,3.211,10.109
				c1.103,0.57,2.281,0.842,3.443,0.842c2.713,0,5.332-1.477,6.666-4.053l148.112-285.971c4.88-2.988,9.026-7.29,11.837-12.716
				l23.122-44.645C508.287,87.431,508.974,78.108,506.095,69.725z M193.177,338.529c4.701-4.591,11.751-6.146,18.401-4.063
				c30.833,9.666,54.867,33.891,64.293,64.8c1.929,6.324,0.222,13.157-4.454,17.832c-4.474,4.475-10.81,6.228-16.949,4.697
				c-6.14-1.533-10.907-6.061-12.753-12.116c-0.97-3.178-3.474-5.556-6.697-6.359c-3.225-0.808-6.552,0.117-8.898,2.468
				l-14.177,14.177c-3.406,3.405-8.549,4.185-12.762,2.116l-10.99-21.22c0.513-0.985,1.156-1.892,1.956-2.693l14.176-14.176
				c2.35-2.349,3.272-5.676,2.468-8.899c-0.804-3.224-3.181-5.728-6.361-6.698c-6.095-1.858-10.633-6.665-12.141-12.857
				C186.782,349.348,188.609,342.99,193.177,338.529z M96.229,199.95c10.61-10.61,24.716-16.453,39.72-16.453
				c15.004,0,29.11,5.843,39.72,16.453c10.609,10.609,16.453,24.715,16.453,39.72c0,15.004-5.843,29.11-16.453,39.72
				c-11.158,11.159-26.25,17.008-41.907,16.384l-44.91-86.712C90.99,205.77,93.461,202.717,96.229,199.95z M334.388,380.439
				c-19.132-9.312-31.596-28.871-31.596-50.509c0-30.974,25.199-56.173,56.173-56.173c9.566,0,18.809,2.39,27.072,6.958
				L334.388,380.439z"/>
		</g>
	</g>
</g>
<g>
</g>
<g>
</g>
<g>
</g>
<g>
</g>
<g>
</g>
<g>
</g>
<g>
</g>
<g>
</g>
<g>
</g>
<g>
</g>
<g>
</g>
<g>
</g>
<g>
</g>
<g>
</g>
<g>
</g>
</svg>
